<?xml version="1.0"?>
<svg xmlns="http://www.w3.org/2000/svg" data-name="Layer 1" id="Layer_1" viewBox="0 0 128 128"><title/><path d="M96,50a1.99869,1.99869,0,0,0,1.55957-.748C98.73047,47.79346,109,34.81982,109,28.5a13.01,13.01,0,0,0-26,0c0,6.31982,10.26953,19.29346,11.44043,20.752A1.99869,1.99869,0,0,0,96,50Zm0-30a8.77074,8.77074,0,0,1,9,8.5c0,3.2627-5.01416,10.97266-9,16.24316C92.01416,39.47266,87,31.7627,87,28.5A8.77074,8.77074,0,0,1,96,20Z"/><path d="M102,29a6,6,0,1,0-6,6A6.00656,6.00656,0,0,0,102,29Zm-8,0a2,2,0,1,1,2,2A2.002,2.002,0,0,1,94,29Z"/><path d="M91.32178,51.75684C90.53845,50.78113,89.53,49.48523,88.43542,48H39.56464c-1.09448,1.485-2.10272,2.78082-2.88593,3.75635-.069.08588-.14618.16223-.21912.24365H91.54047C91.46771,51.91876,91.39063,51.84253,91.32178,51.75684Z"/><path d="M32,50a1.99869,1.99869,0,0,0,1.55957-.748C34.73047,47.79346,45,34.81982,45,28.5A12.77163,12.77163,0,0,0,32,16,12.77163,12.77163,0,0,0,19,28.5c0,6.31982,10.26953,19.29346,11.44043,20.752A1.99869,1.99869,0,0,0,32,50Zm0-30a8.77074,8.77074,0,0,1,9,8.5c0,3.2627-5.01416,10.97266-9,16.24316C28.01416,39.47266,23,31.7627,23,28.5A8.77074,8.77074,0,0,1,32,20Z"/><path d="M38,29a6,6,0,1,0-6,6A6.00656,6.00656,0,0,0,38,29Zm-8,0a2,2,0,1,1,2,2A2.002,2.002,0,0,1,30,29Z"/><path d="M13,83a6,6,0,1,0,6,6A6.00656,6.00656,0,0,0,13,83Zm0,8a2,2,0,1,1,2-2A2.002,2.002,0,0,1,13,91Z"/><path d="M107.43542,108H20.56464c-1.09448,1.485-2.10272,2.78082-2.88593,3.75635-.069.08588-.14618.16223-.21912.24365h93.08087c-.07275-.08124-.14984-.15747-.21869-.24316C109.53845,110.78113,108.53,109.48523,107.43542,108Z"/><path d="M28.72339,53.02271l-6.725,21.50391a17.00129,17.00129,0,0,1,3.35529,2.67285l7.26611-23.23407A6.06826,6.06826,0,0,1,32,54,5.97059,5.97059,0,0,1,28.72339,53.02271Z"/><path d="M95.38025,53.96539l7.26611,23.23407a17.00129,17.00129,0,0,1,3.35529-2.67285l-6.725-21.50391A5.97054,5.97054,0,0,1,96,54,6.06826,6.06826,0,0,1,95.38025,53.96539Z"/><path d="M35.73584,57.40283l-7.46973,23.8844A15.97838,15.97838,0,0,1,30,88.5c0,.26746-.035.55231-.05853.83142l9.61176-30.73425a1.99993,1.99993,0,0,0-3.81738-1.19434Z"/><path d="M23.40826,103.94165A1.9958,1.9958,0,0,0,23.88379,104h80.23242a1.98853,1.98853,0,0,0,.473-.06232c-.84045-1.2674-1.66785-2.592-2.44391-3.93768H26.605l1.08386-3.46564A62.364,62.364,0,0,1,23.40826,103.94165Z"/><path d="M23.91888,95.18756a28.39241,28.39241,0,0,0,1.33551-3.12341c.037-.10431.07355-.20831.10815-.31134q.06445-.19373.1225-.38306c.04956-.15985.09515-.31732.13806-.47345.02362-.08679.04736-.17352.06891-.25879.048-.18921.08929-.37427.1264-.55707.01141-.05646.02441-.11407.03479-.1698.03949-.21179.07013-.41815.09344-.62006.003-.026.00781-.05328.01056-.0791A6.83568,6.83568,0,0,0,26,88.5,12.77163,12.77163,0,0,0,13,76,12.77163,12.77163,0,0,0,0,88.5c0,6.31982,10.26953,19.29346,11.44043,20.752a1.99976,1.99976,0,0,0,3.11914,0,92.01418,92.01418,0,0,0,9.38574-14.14886ZM13,104.74316C9.01416,99.47266,4,91.7627,4,88.5A8.77074,8.77074,0,0,1,13,80a8.77074,8.77074,0,0,1,9,8.5C22,91.7627,16.98584,99.47266,13,104.74316Z"/><path d="M115,76a12.77163,12.77163,0,0,0-13,12.5c0,6.31982,10.26953,19.29346,11.44043,20.752a1.99976,1.99976,0,0,0,3.11914,0C117.73047,107.79346,128,94.81982,128,88.5A12.77163,12.77163,0,0,0,115,76Zm0,28.74316c-3.98584-5.27051-9-12.98047-9-16.24316a9.01471,9.01471,0,0,1,18,0C124,91.7627,118.98584,99.47266,115,104.74316Z"/><path d="M115,83a6,6,0,1,0,6,6A6.00656,6.00656,0,0,0,115,83Zm0,8a2,2,0,1,1,2-2A2.002,2.002,0,0,1,115,91Z"/></svg>
