<svg id="Layer_1" enable-background="new 0 0 30 30" height="512" viewBox="0 0 30 30" width="512" xmlns="http://www.w3.org/2000/svg"><g><path d="m20.099 17.871-.6-3.342 2.471-2.409c.852-.785.353-2.307-.793-2.444 0 0-3.365-.459-3.365-.459l-1.531-3.095c-.471-1.05-2.098-1.051-2.568.001 0 0-1.477 3.057-1.477 3.057l-3.416.5c-1.15.135-1.64 1.659-.794 2.443l2.452 2.35-.583 3.4c-.134.779.389 1.52 1.169 1.654.311.053.63.003.909-.144l2.993-1.606c.461.178 3.236 1.874 3.723 1.77.877.006 1.564-.813 1.41-1.676zm-4.436-1.424c-.417-.219-.916-.219-1.333 0l-2.933 1.542.561-3.266c.079-.465-.075-.939-.412-1.269l-2.374-2.313 3.279-.477c.467-.068.87-.36 1.079-.783l1.446-3.014 1.489 3.015c.208.422.611.714 1.077.782l3.28.477-2.374 2.314c-.337.329-.491.803-.411 1.268l.56 3.266z"/><path d="m11.395 21.476.002.001-2.661-.381-1.19-2.41c-.428-.954-1.905-.956-2.333 0 0 0-1.191 2.41-1.191 2.41l-2.66.386c-.71.105-1.201.765-1.097 1.476-.033.617 1.767 2.007 2.3 2.614 0 0-.454 2.648-.454 2.648-.212 1.033.97 1.89 1.886 1.376 0 0 2.379-1.25 2.379-1.25l2.381 1.25c.918.521 2.098-.341 1.89-1.372 0 0-.45-2.65-.45-2.65l1.92-1.878c.777-.712.322-2.1-.722-2.22zm-2.323 3.101c-.306.298-.446.727-.375 1.148l.4 2.355-2.111-1.111c-.38-.2-.833-.2-1.213 0l-2.116 1.111.4-2.355c.073-.422-.067-.854-.374-1.153l-1.708-1.668 2.365-.344c.424-.061.791-.328.98-.712l1.059-2.144 1.058 2.144c.189.384.556.651.98.712l2.365.344z"/><path d="m29.383 21.858c-.201-.207-.465-.342-.751-.383v.002l-2.66-.386-1.19-2.41c-.316-.645-1.095-.911-1.74-.594-.602.158-1.37 2.309-1.784 3.004 0 0-2.66.386-2.66.386-.711.102-1.204.761-1.102 1.472-.035.619 1.774 2.021 2.301 2.625 0 0-.454 2.649-.454 2.649-.215 1.037.977 1.896 1.894 1.373 0 0 2.378-1.25 2.378-1.25l2.382 1.25c.635.336 1.421.094 1.757-.541.395-.485-.248-2.666-.323-3.48 0 0 1.922-1.879 1.922-1.879.516-.499.529-1.322.03-1.838zm-3.076 2.714c-.306.3-.446.73-.375 1.153l.405 2.355-2.115-1.111c-.38-.2-.833-.2-1.213 0l-2.112 1.111.4-2.355c.073-.423-.067-.854-.375-1.153l-1.711-1.668 2.364-.344c.424-.061.791-.327.981-.712l1.058-2.144 1.058 2.144c.189.384.556.651.98.712l2.366.344z"/><path d="m14.997 3.863c.414 0 .75-.336.75-.75v-2.117c0-.414-.336-.75-.75-.75s-.75.336-.75.75v2.117c0 .414.336.75.75.75z"/><path d="m10.346 6.389c.684.702 1.758-.334 1.078-1.043-.021-.026-1.529-1.526-1.55-1.55-.695-.69-1.751.364-1.06 1.06z"/><path d="m19.63 6.408c.024-.021 1.527-1.53 1.55-1.551.646-.693-.367-1.706-1.06-1.06v-.001l-1.532 1.533c-.703.684.333 1.758 1.042 1.079z"/></g></svg>