<svg id="Capa_1" enable-background="new 0 0 512.018 512.018" height="512" viewBox="0 0 512.018 512.018" width="512" xmlns="http://www.w3.org/2000/svg"><g><path d="m174.878 435.595h14.999v15h-14.999z"/><path d="m316 465.104h15v15h-15z"/><path d="m346 465.104h15v15h-15z"/><path d="m256.252 165.104c31.133 0 58.566 18.733 69.889 47.727l13.973-5.457c-6.517-16.687-17.764-30.934-32.524-41.201-15.113-10.512-32.865-16.068-51.337-16.068-18.473 0-36.225 5.557-51.338 16.069-14.761 10.267-26.008 24.515-32.524 41.201l13.973 5.457c11.321-28.994 38.754-47.728 69.888-47.728z"/><path d="m198.777 222.221 13.963 5.479c1.663-4.263 3.338-8.423 5.777-12.308l-12.734-7.928s-4.309 8.691-7.006 14.757z"/><path d="m237.576 198.804-6.26-13.631c-5.194 2.385-10.021 5.508-14.346 9.281l9.861 11.303c3.243-2.828 6.857-5.168 10.745-6.953z"/><path d="m510.014 200.741c3.063-5.903 2.588-12.949-1.242-18.388l-22.564-32.042h8.057c6.651 0 12.686-3.667 15.749-9.57s2.588-12.949-1.242-18.388l-58.822-83.531c-3.046-4.325-8.021-6.908-13.312-6.908-5.289 0-10.265 2.583-13.31 6.907l-58.821 83.532c-3.83 5.438-4.306 12.484-1.242 18.388s9.098 9.57 15.748 9.57h8.057l-17.938 25.474 12.264 8.637 24.02-34.11h31.223v-15h-57.626c-1.449 0-2.147-.927-2.434-1.479s-.644-1.656.191-2.842l58.822-83.533c.507-.72 1.585-.719 2.092.001l58.822 83.532c.835 1.186.479 2.289.191 2.842-.286.553-.984 1.479-2.435 1.479h-43.262v15h16.862l28.646 40.679c.835 1.186.479 2.289.191 2.842-.286.553-.984 1.479-2.435 1.479h-50.264v15h23.638l28.87 40.997c.834 1.185.479 2.288.191 2.841-.286.553-.984 1.479-2.435 1.479h-24.009c-8.38-5.02-18.233-7.776-28.729-7.289 1.193-29.24-22.956-54.415-52.215-54.415-29.252 0-53.388 25.15-52.217 54.382-32.673-1.029-58.761 29.335-53.01 61.463-6.365 2.553-12.998 4.195-19.833 4.912v-44.972l27.304-27.302-10.607-10.607-24.196 24.196-21.196-21.197-10.607 10.607 24.304 24.304v45.062c-7.339-.675-14.476-2.423-21.307-5.21 5.671-32.444-20.997-62.751-53.924-61.223 1.193-29.24-22.956-54.415-52.215-54.415-29.252 0-53.388 25.15-52.217 54.382-10.206-.321-19.769 2.421-27.92 7.322h-23.296c-1.45 0-2.147-.927-2.434-1.479s-.643-1.655.191-2.841l28.87-40.997h23.639v-15h-50.266c-1.449 0-2.147-.927-2.434-1.479s-.644-1.656.191-2.842l28.645-40.679h16.864v-15h-43.266c-1.449 0-2.147-.927-2.434-1.479s-.644-1.656.191-2.842l58.823-83.533c.506-.719 1.583-.72 2.091.001l58.822 83.532c.835 1.186.479 2.29.191 2.842-.286.553-.984 1.479-2.434 1.479h-57.624v15h31.223l24.019 34.11 12.264-8.637-17.938-25.474h8.058c6.65 0 12.685-3.667 15.748-9.57s2.588-12.949-1.242-18.388l-58.821-83.531c-3.046-4.325-8.021-6.908-13.311-6.908s-10.265 2.583-13.31 6.907l-58.822 83.533c-3.83 5.438-4.306 12.484-1.242 18.388s9.098 9.57 15.748 9.57h8.057l-22.563 32.042c-3.83 5.438-4.306 12.484-1.242 18.388s9.098 9.57 15.748 9.57h8.282l-22.788 32.36c-3.829 5.438-4.306 12.482-1.242 18.386 3.063 5.904 9.098 9.571 15.748 9.571h7.167c-7.786 10.976-11.515 24.884-8.961 39.146 4.609 25.729 27.69 42.784 51.919 42.843v82.976h-68.499v15h158.877v-15h-27.131v-74.676c8.057-2.328 15.07-7.523 19.619-14.561 26.367 14.438 59.015 2.712 71.833-22.55 8.359 3.305 17.087 5.314 26.053 6.001v105.785h-45.375v15h308.124v-15h-67.86v-82.989c23.996-.355 46.712-17.328 51.28-42.83 2.561-14.299-1.171-28.192-8.958-39.146h7.804c6.651 0 12.687-3.668 15.749-9.571 3.063-5.903 2.587-12.948-1.242-18.386l-22.788-32.36h8.281c6.65.001 12.684-3.666 15.748-9.57zm-426.514 149.66c3.269-.999 6.495-2.327 9.629-4.043 4.921 7.613 12.726 13.072 21.618 15.073v74.163h-31.247zm129.876-44.595c-2.299 16.163-15.461 29.325-31.625 31.624-15.466 2.2-26.324-5.999-37.507-15.091-2.516 8.608-5.201 18.16-12.498 22.525v-41.65l20.804-20.803-11.608-11.608-17.697 17.696-16.693-16.7-11.608 11.608 19.804 19.804v42.665c-8.832-3.718-11.764-14.185-14.497-23.537-11.571 9.408-22.818 17.673-38.783 14.864-15.617-2.747-28.116-15.698-30.349-31.397-2.321-16.316 6.763-32.659 21.821-39.34 12.027-5.337 23.604-2.189 35.678.677-2.914-11.737-6.134-23.02-1.36-34.855 5.623-13.937 19.504-23.363 34.549-23.363 15.47 0 29.725 9.997 35.021 24.535 4.253 11.676.878 22.765-2.025 34.214 12.858-3.344 25.116-6.818 37.884-.659 14.429 6.96 22.947 22.925 20.689 38.791zm50.876 23.949c8.494-.74 16.738-2.664 24.645-5.753 12.886 25.129 45.44 36.756 71.738 22.356 4.921 7.613 12.726 13.072 21.618 15.073v74.163h-118.001zm135 105.84v-74.676c8.057-2.328 15.07-7.523 19.619-14.561 3.339 1.828 6.781 3.212 10.269 4.228v85.009zm81.63-129.789c-2.299 16.163-15.461 29.325-31.625 31.624-15.466 2.2-26.324-5.999-37.507-15.091-2.516 8.608-5.201 18.16-12.498 22.525v-41.65l20.804-19.807-11.608-11.604-17.697 16.695-16.693-16.7-11.608 11.608 19.804 19.804v42.665c-8.832-3.718-11.764-14.185-14.497-23.537-11.571 9.408-22.818 17.673-38.783 14.864-15.617-2.747-28.116-15.698-30.349-31.397-2.321-16.316 6.763-32.659 21.821-39.34 12.027-5.337 23.604-2.189 35.678.677-2.914-11.737-6.134-23.02-1.36-34.855 5.623-13.937 19.504-23.363 34.549-23.363 15.47 0 29.725 9.997 35.021 24.535 4.253 11.675.878 22.764-2.025 34.213 12.858-3.343 25.117-6.816 37.884-.658 14.429 6.961 22.946 22.926 20.689 38.792z"/><path d="m53.179 98.675h15v15h-15z" transform="matrix(.576 -.818 .818 .576 -61.067 94.656)"/><path d="m413.5 98.675h15v15h-15z" transform="matrix(.576 -.818 .818 .576 91.794 389.26)"/><path d="m316 285.104h15v15h-15z"/><path d="m46.167 285.104h15v15h-15z"/></g></svg>