<svg id="Layer_1" enable-background="new 0 0 492 492" viewBox="0 0 492 492" xmlns="http://www.w3.org/2000/svg"><g><g><path d="m463.66 300.26h-183.98c-3.18 0-5.76-2.58-5.76-5.76v-58.75c0-3.18 2.58-5.76 5.76-5.76h106.53c1.26 0 2.48.41 3.48 1.17l77.45 58.75c1.97 1.5 2.77 4.08 1.98 6.43-.79 2.34-2.99 3.92-5.46 3.92zm-178.22-11.52h161.09l-62.26-47.23h-98.83z"/></g><g><path d="m279.68 432.02h-206.53c-3.18 0-5.76-2.58-5.76-5.76s2.58-5.76 5.76-5.76h200.77v-253.21l-98.84-72.44-96.17 70.48v123.27c0 3.18-2.58 5.76-5.76 5.76s-5.76-2.58-5.76-5.76v-126.19c0-1.84.87-3.56 2.35-4.65l101.93-74.7c2.03-1.49 4.78-1.49 6.81 0l104.6 76.66c1.48 1.08 2.35 2.81 2.35 4.65v261.89c.01 3.18-2.57 5.76-5.75 5.76z"/></g><g><path d="m300.83 185.62c-1.22 0-2.41-.39-3.41-1.11l-122.34-89.66-122.34 89.66c-1.23.9-2.77 1.28-4.28 1.05s-2.87-1.06-3.77-2.29l-13.47-18.38c-1.88-2.57-1.32-6.17 1.24-8.05l139.22-102.03c2.03-1.49 4.78-1.49 6.81 0l139.22 102.03c2.57 1.88 3.12 5.48 1.24 8.05l-13.47 18.38c-.9 1.23-2.26 2.06-3.77 2.29-.29.04-.59.06-.88.06zm-256.92-22.9 6.66 9.09 121.1-88.75c2.03-1.49 4.78-1.49 6.81 0l121.1 88.75 6.66-9.09-131.16-96.12z"/></g><g><path d="m429.83 432.02h-150.15c-3.18 0-5.76-2.58-5.76-5.76v-131.76c0-3.18 2.58-5.76 5.76-5.76h150.15c3.18 0 5.76 2.58 5.76 5.76v131.75c0 3.19-2.58 5.77-5.76 5.77zm-144.39-11.52h138.63v-120.24h-138.63z"/></g><g><path d="m375.23 241.51h-95.55c-3.18 0-5.76-2.58-5.76-5.76v-71.38c0-2.17 1.22-4.16 3.16-5.14s4.26-.79 6.01.49l16.5 12.09 6.66-9.09-24.93-18.27c-2.01-1.47-2.84-4.07-2.07-6.44s2.98-3.97 5.47-3.97h90.5c3.18 0 5.76 2.58 5.76 5.76v95.94c.01 3.19-2.57 5.77-5.75 5.77zm-89.79-11.52h84.03v-84.42h-67.14l15.37 11.27c2.57 1.88 3.12 5.48 1.24 8.05l-13.47 18.38c-.9 1.23-2.26 2.06-3.77 2.29s-3.05-.14-4.28-1.05l-11.99-8.78v54.26z"/></g><g><path d="m375.23 218.66h-40.63c-3.18 0-5.76-2.58-5.76-5.76v-50.25c0-3.18 2.58-5.76 5.76-5.76h40.63c3.18 0 5.76 2.58 5.76 5.76v50.25c0 3.19-2.58 5.76-5.76 5.76zm-34.86-11.52h29.11v-38.73h-29.11z"/></g><g><path d="m404.31 145.57h-119.58c-1.22 0-2.42-.39-3.41-1.11l-80.17-58.76c-2.01-1.47-2.84-4.07-2.07-6.44s2.98-3.97 5.47-3.97h122.3c1.26 0 2.48.41 3.48 1.17l77.45 58.75c1.97 1.49 2.77 4.08 1.98 6.43-.78 2.35-2.98 3.93-5.45 3.93zm-117.69-11.52h100.57l-62.26-47.23h-102.77z"/></g><g><path d="m461.88 457.67h-430.22c-3.18 0-5.76-2.58-5.76-5.76v-25.66c0-3.18 2.58-5.76 5.76-5.76h430.22c3.18 0 5.76 2.58 5.76 5.76v25.66c0 3.19-2.58 5.76-5.76 5.76zm-424.46-11.51h418.7v-14.14h-418.7z"/></g><g><path d="m68.72 381.17c-19.95 0-36.19-16.23-36.19-36.19 0-9.73 3.99-19.07 10.85-25.83-1.28-3.17-1.94-6.57-1.94-10.03 0-14.8 12.04-26.84 26.84-26.84s26.84 12.04 26.84 26.84c0 3.24-.58 6.42-1.7 9.42 7.26 6.8 11.48 16.37 11.48 26.44.01 19.96-16.22 36.19-36.18 36.19zm-.43-87.37c-8.45 0-15.32 6.87-15.32 15.32 0 2.96.85 5.83 2.45 8.31 1.65 2.55 1.04 5.94-1.4 7.75-6.33 4.71-9.96 11.93-9.96 19.81 0 13.6 11.07 24.67 24.67 24.67s24.67-11.07 24.67-24.67c0-8-3.9-15.53-10.45-20.16-2.48-1.75-3.17-5.13-1.58-7.71 1.47-2.4 2.25-5.16 2.25-7.99-.01-8.46-6.88-15.33-15.33-15.33z"/></g><g><path d="m91.6 432.01h-45.75c-3.18 0-5.76-2.58-5.76-5.76v-25.65c0-3.18 2.58-5.76 5.76-5.76h45.75c3.18 0 5.76 2.58 5.76 5.76v25.66c0 3.18-2.58 5.75-5.76 5.75zm-39.99-11.51h34.23v-14.14h-34.23z"/></g><g><path d="m68.72 406.36c-3.18 0-5.76-2.58-5.76-5.76v-68.87c0-3.18 2.58-5.76 5.76-5.76s5.76 2.58 5.76 5.76v68.87c0 3.18-2.57 5.76-5.76 5.76z"/></g><g><path d="m222.92 432.01h-93c-3.18 0-5.76-2.58-5.76-5.76v-122c0-3.18 2.58-5.76 5.76-5.76h93c3.18 0 5.76 2.58 5.76 5.76v122c0 3.19-2.58 5.76-5.76 5.76zm-87.24-11.51h81.48v-110.48h-81.48z"/></g><g><path d="m156.48 378.45c-8.86 0-16.07-7.21-16.07-16.07s7.21-16.07 16.07-16.07 16.07 7.21 16.07 16.07-7.21 16.07-16.07 16.07zm0-20.62c-2.51 0-4.55 2.04-4.55 4.55s2.04 4.55 4.55 4.55 4.55-2.04 4.55-4.55-2.04-4.55-4.55-4.55z"/></g><g><g><path d="m249.36 209.14h-145.88c-3.18 0-5.76-2.58-5.76-5.76v-30c0-3.18 2.58-5.76 5.76-5.76h145.88c3.18 0 5.76 2.58 5.76 5.76v30c0 3.18-2.58 5.76-5.76 5.76zm-140.12-11.52h134.36v-18.48h-134.36z"/></g><g><path d="m249.36 267.64h-145.88c-3.18 0-5.76-2.58-5.76-5.76v-30c0-3.18 2.58-5.76 5.76-5.76h145.88c3.18 0 5.76 2.58 5.76 5.76v30c0 3.18-2.58 5.76-5.76 5.76zm-140.12-11.52h134.36v-18.48h-134.36z"/></g></g><g><path d="m68.73 350.7c-1.52 0-3.04-.6-4.17-1.79-2.19-2.3-2.1-5.95.2-8.14l11.63-11.06c2.3-2.19 5.95-2.1 8.14.2s2.1 5.95-.2 8.14l-11.63 11.06c-1.12 1.06-2.55 1.59-3.97 1.59z"/></g><g><path d="m68.72 364.01c-1.43 0-2.85-.53-3.97-1.59l-11.63-11.06c-2.3-2.19-2.4-5.84-.2-8.14 2.19-2.31 5.84-2.4 8.14-.2l11.63 11.06c2.3 2.19 2.4 5.84.2 8.14-1.12 1.19-2.64 1.79-4.17 1.79z"/></g><g><path d="m399.76 391.26h-90c-3.18 0-5.76-2.58-5.76-5.76v-50.25c0-3.18 2.58-5.76 5.76-5.76h90c3.18 0 5.76 2.58 5.76 5.76v50.25c0 3.18-2.58 5.76-5.76 5.76zm-84.24-11.52h78.48v-38.73h-78.48z"/></g><g><path d="m436.46 97.2h-40.7c-12.18 0-22.1-9.91-22.1-22.1 0-11.68 9.11-21.27 20.6-22.05 2.22-9.86 11.04-17.25 21.56-17.25 10.51 0 19.33 7.37 21.55 17.22 11.76.48 21.18 10.2 21.18 22.08.01 12.19-9.91 22.1-22.09 22.1zm-40.7-32.68c-5.83 0-10.58 4.75-10.58 10.58s4.75 10.58 10.58 10.58h40.7c5.83 0 10.58-4.75 10.58-10.58s-4.75-10.58-10.58-10.58c-.96 0-1.91.13-2.83.38-1.82.5-3.77.08-5.22-1.13s-2.22-3.05-2.05-4.93c.03-.31.04-.63.04-.95 0-5.83-4.75-10.58-10.58-10.58s-10.58 4.75-10.58 10.58c0 .29.01.57.04.85.14 1.83-.6 3.63-2 4.82-1.4 1.2-3.28 1.65-5.07 1.23-.8-.17-1.62-.27-2.45-.27z"/></g><g><path d="m74.72 104.31h-32.72c-10.42 0-18.9-8.48-18.9-18.9 0-9.71 7.36-17.73 16.79-18.78 2.18-8.03 9.53-13.94 18.24-13.94 8.69 0 16.03 5.9 18.22 13.9 9.66.83 17.26 8.96 17.26 18.83.01 10.41-8.47 18.89-18.89 18.89zm-32.72-26.27c-4.07 0-7.38 3.31-7.38 7.38s3.31 7.38 7.38 7.38h32.72c4.07 0 7.38-3.31 7.38-7.38s-3.31-7.38-7.38-7.38c-.67 0-1.33.09-1.98.27-1.82.5-3.77.08-5.22-1.13s-2.22-3.05-2.05-4.93c.02-.22.03-.44.03-.66 0-4.07-3.31-7.38-7.38-7.38s-7.38 3.31-7.38 7.38c0 .2.01.4.02.6.14 1.83-.6 3.63-2 4.82-1.4 1.2-3.28 1.65-5.07 1.23-.54-.13-1.12-.2-1.69-.2z"/></g></g></svg>