<svg clip-rule="evenodd" fill-rule="evenodd" height="43.349mm" image-rendering="optimizeQuality" shape-rendering="geometricPrecision" text-rendering="geometricPrecision" viewBox="0 0 4335 4335" width="43.349mm" xmlns="http://www.w3.org/2000/svg"><g id="Layer_x0020_1"><g id="_333052248"><g><g id="_295385912"><path d="m3770 4335c-28 0-51-23-51-51v-1665h-3103v1665c0 28-23 51-51 51s-51-23-51-51v-1716c0-28 23-51 51-51h3205c28 0 51 23 51 51v1716c0 28-23 51-51 51z"/></g><g id="_295408088"><path d="m4171 2619h-4007c-28 0-51-23-51-51v-314c0-28 23-51 51-51h4007c28 0 51 23 51 51v314c0 28-23 51-51 51zm-3956-102h3905v-212h-3905z"/></g><g id="_295395728"><path d="m3770 3648h-1321c-28 0-51-23-51-51v-1029c0-28 23-51 51-51h1321c28 0 51 23 51 51v1029c0 28-23 51-51 51zm-1270-102h1219v-927h-1219z"/></g><g id="_295412864"><path d="m3770 3133h-1321c-28 0-51-22-51-50s23-51 51-51h1321c28 0 51 23 51 51s-23 50-51 50z"/></g><g id="_295412096"><path d="m3210 2876h-201c-28 0-50-22-50-51 0-28 22-50 50-50h201c28 0 51 22 51 50 0 29-23 51-51 51z"/></g><g id="_295393904"><path d="m3210 3391h-201c-28 0-50-23-50-51s22-51 50-51h201c28 0 51 23 51 51s-23 51-51 51z"/></g><g><g><g id="_295414472"><path d="m3734 2305h-1604c-28 0-51-23-51-51v-424c0-263 213-476 475-476h200c28 0 50 23 50 51s-22 51-50 51h-200c-206 0-374 167-374 374v373h1503v-373c0-207-168-374-374-374h-199c-28 0-51-23-51-51s23-51 51-51h199c262 0 476 213 476 476v424c0 28-23 51-51 51z"/></g><g id="_295385096"><path d="m2389 2305c-28 0-51-23-51-51v-299c0-28 23-50 51-50s51 22 51 50v299c0 28-23 51-51 51z"/></g><g id="_295412672"><path d="m3474 2305c-28 0-50-23-50-51v-299c0-28 22-50 50-50 29 0 51 22 51 50v299c0 28-22 51-51 51z"/></g><g id="_295399112"><path d="m2932 1775c-19 0-36-10-45-26l-178-319c-13-25-5-56 20-70 24-13 55-4 69 20l134 240 134-240c13-24 44-33 69-20 24 14 33 45 19 70l-178 319c-9 16-26 26-44 26z"/></g><g id="_295402184"><path d="m2754 1456c-28 0-51-23-51-51v-164c0-28 23-51 51-51s50 23 50 51v164c0 28-22 51-50 51z"/></g><g id="_295396184"><path d="m3110 1456c-28 0-51-23-51-51v-164c0-28 23-51 51-51s51 23 51 51v164c0 28-23 51-51 51z"/></g><g id="_295401440"><path d="m2932 1350c-61 0-121-16-177-47-133-77-210-233-210-426 0-28 23-51 51-51 28 0 51 23 51 51 0 156 58 279 159 338 79 45 173 45 252-1 101-58 159-182 159-339 0-28 22-51 50-51 28 0 51 23 51 51 1 194-76 350-209 427-55 32-116 48-177 48z"/></g><g id="_295403624"><path d="m3340 743s-1 0-2 0c-28-1-50-25-48-53 9-187-55-332-181-408-107-64-245-65-352-1-126 74-191 218-183 404 1 28-21 51-49 53-28 1-52-21-53-49-9-222 76-402 233-496 141-83 316-83 456 2 157 95 241 277 230 500-1 27-24 48-51 48z"/></g><g id="_295408616"><path d="m3327 938c-24 0-51-5-81-17-147-56-231-77-311-77-81 0-165 21-311 77-27 10-51 15-74 15-50 0-91-26-112-70-27-59-15-145 28-196 69-81 301-117 488-117 131 0 439 19 478 195 11 45 16 109-19 152-14 17-40 38-86 38zm-392-196c107 0 212 32 347 84 37 14 51 10 53 10 3-4 7-26-2-66-15-68-171-116-379-116-220 0-382 48-410 82-17 20-24 64-14 87 4 8 8 11 20 11 7 0 19-1 37-8 135-52 240-84 348-84z"/></g><g id="_295390640"><path d="m2853 241c-28 0-51-23-51-51v-61c0-71 58-129 130-129 71 0 129 58 129 129v61c0 28-23 51-51 51s-50-23-50-51v-61c0-15-13-27-28-27s-28 12-28 27v61c0 28-23 51-51 51z"/></g></g><g><g id="_295413416"><path d="m1533 2016h-331c-28 0-50-23-50-51s22-51 50-51h331c10 0 19-9 19-19v-714c0-10-9-19-19-19h-862c-11 0-19 9-19 19v714c0 10 8 19 19 19h330c28 0 51 23 51 51s-23 51-51 51h-330c-67 0-121-54-121-121v-714c0-66 54-121 121-121h862c66 0 120 55 120 121v714c0 67-54 121-120 121z"/></g><g id="_295406960"><path d="m1202 2305h-201c-28 0-51-23-51-51v-436c0-28 23-51 51-51h201c28 0 51 23 51 51v436c0 28-23 51-51 51zm-150-102h100v-334h-100z"/></g></g></g></g></g></g></svg>