<svg height="512pt" viewBox="-2 0 512 512.00048" width="512pt" xmlns="http://www.w3.org/2000/svg"><path d="m499.90625 170.746094h-19.316406c-.230469-.214844-.46875-.421875-.730469-.613282l-64.410156-46.570312c-1.265625-.917969-2.789063-1.410156-4.355469-1.410156h-68.847656l-20.480469-13.957032c-7.921875-5.398437-16.292969 6.882813-8.371094 12.28125l73.707031 50.230469h-265.6875l132.15625-89.226562c.261719.027343.53125.046875.800782.046875.1875 0 .371094-.015625.554687-.027344l25.878907 16.972656c8.015624 5.257813 16.171874-7.171875 8.152343-12.429687l-27.15625-17.808594v-17.050781c1.328125.164062 2.648438.242187 3.953125.242187 12.078125 0 27.574219-10.539062 38.976563-3.964843 4.8125 2.765624 11.144531-.851563 11.144531-6.441407v-28.839843c0-2.660157-1.421875-5.113282-3.722656-6.441407-8.441406-4.859375-17.75-4.484375-26.917969-2.316406-7.40625 1.757813-15.683594 5.835937-23.433594 3.839844-.527343-9.453125-14.863281-9.859375-14.863281-.144531v60.90625l-80.171875 54.128906h-69.535156c-1.5625 0-3.085938.496094-4.355469 1.410156l-64.40625 46.570312c-.261719.191407-.5.398438-.730469.613282h-20.304687c-4.105469 0-7.433594 3.328125-7.433594 7.433594v42.527343c0 4.105469 3.328125 7.433594 7.433594 7.433594h4.210937v193.261719c0 9.585937 14.863281 9.585937 14.863281 0v-193.261719h90.914063v34.222656c0 4.105469 3.328125 7.433594 7.429687 7.433594h16.351563v200.585937h-16.351563c-4.101562 0-7.429687 3.328126-7.429687 7.433594v19.320313h-90.914063v-40.0625c0-9.585938-14.863281-9.585938-14.863281 0v47.496093c0 4.101563 3.324219 7.429688 7.429688 7.429688h470.179687c11.347656 0 7.429688-24.894531 7.429688-31.523438 0-22.429687 0-236.171874 0-244.355468 0-3.125-1.886719-9.601563 3.222656-7.980469 4.105469 0 7.429688-3.328125 7.429688-7.433594v-42.527343c0-4.105469-3.324219-7.433594-7.429688-7.433594zm-238.105469-148.394532c7.820313.957032 15.273438-1.191406 21.660157-3.03125 7.382812-2.128906 12.6875-3.488281 17.550781-2.238281v13.765625c-7.820313-.957031-15.273438 1.1875-21.660157 3.03125-7.382812 2.125-12.6875 3.488282-17.550781 2.234375zm102.257813 114.664063h44.632812l46.648438 33.730469h-41.785156zm-264.421875 0h45.113281l-49.957031 33.730469h-41.804688zm94.082031 360.121094h-61.433594v-11.890625h61.433594zm-37.652344-26.753907v-198.605468h14.863282v198.605468zm114.941406 24.34375h-33.6875v-86.433593c0-4.925781 2.144532-9.585938 5.882813-12.792969 6.351563-5.441406 15.574219-5.445312 21.925781 0 3.734375 3.207031 5.882813 7.867188 5.882813 12.792969v86.433593zm28.738282-16.914062v19.324219h-13.875v-88.84375c0-9.269531-4.035156-18.042969-11.070313-24.074219-11.957031-10.25-29.316406-10.25-41.273437 0-7.035156 6.03125-11.070313 14.804688-11.070313 24.074219v88.84375h-13.875v-19.324219c0-4.101562-3.328125-7.429688-7.429687-7.429688h-15.359375v-200.585937h85.214843c9.589844 0 9.589844-14.863281 0-14.863281h-138.722656v-26.753906h243.757813v26.753906h-65.398438c-9.585937 0-9.585937 14.863281 0 14.863281h12.882813v200.585937h-16.351563c-4.105469 0-7.429687 3.328126-7.429687 7.429688zm53.507812-206.035156v198.605468h-14.863281v-198.605468zm22.789063 225.359375h-61.433594v-11.890625h61.433594zm105.777343 0h-90.914062v-19.324219c0-4.101562-3.324219-7.429688-7.429688-7.429688h-15.359374v-200.585937h15.359374c4.105469 0 7.429688-3.328125 7.429688-7.433594v-34.226562h90.914062zm10.652344-283.863281h-477.609375v-27.664063h477.609375zm0 0"/><path d="m254.164062 291.59375c-16.117187 0-29.230468 13.113281-29.230468 29.234375 0 16.117187 13.113281 29.230469 29.230468 29.230469 16.117188 0 29.230469-13.113282 29.230469-29.230469 0-16.121094-13.113281-29.234375-29.230469-29.234375zm0 43.601562c-7.921874 0-14.367187-6.445312-14.367187-14.367187s6.445313-14.371094 14.367187-14.371094c7.921876 0 14.367188 6.449219 14.367188 14.371094s-6.445312 14.367187-14.367188 14.367187zm0 0"/><path d="m411.136719 351.996094h26.921875c4.105468 0 7.429687-3.328125 7.429687-7.433594v-54.222656c0-11.519532-9.371093-20.890625-20.890625-20.890625-11.519531 0-20.890625 9.371093-20.890625 20.890625v54.222656c0 4.105469 3.324219 7.433594 7.429688 7.433594zm7.433593-61.65625c0-3.324219 2.703126-6.027344 6.027344-6.027344 3.324219 0 6.027344 2.703125 6.027344 6.027344v46.792968h-12.054688zm0 0"/><path d="m411.136719 460.003906h26.921875c4.105468 0 7.429687-3.328125 7.429687-7.433594v-54.222656c0-11.519531-9.371093-20.890625-20.890625-20.890625-11.519531 0-20.890625 9.371094-20.890625 20.890625v54.222656c0 4.105469 3.324219 7.433594 7.429688 7.433594zm7.433593-61.65625c0-3.324218 2.703126-6.027344 6.027344-6.027344 3.324219 0 6.027344 2.703126 6.027344 6.027344v46.792969h-12.054688zm0 0"/><path d="m95.207031 351.996094c4.105469 0 7.433594-3.328125 7.433594-7.433594v-54.222656c0-11.519532-9.371094-20.890625-20.890625-20.890625s-20.890625 9.371093-20.890625 20.890625v54.222656c0 4.105469 3.324219 7.433594 7.429687 7.433594zm-19.484375-61.65625c0-3.324219 2.703125-6.027344 6.027344-6.027344s6.027344 2.703125 6.027344 6.027344v46.792968h-12.054688zm0 0"/><path d="m60.859375 452.570312c0 4.105469 3.328125 7.433594 7.429687 7.433594h26.917969c4.105469 0 7.433594-3.328125 7.433594-7.433594v-54.222656c0-11.519531-9.371094-20.890625-20.890625-20.890625s-20.890625 9.371094-20.890625 20.890625zm14.863281-54.222656c0-3.324218 2.703125-6.027344 6.027344-6.027344s6.027344 2.703126 6.027344 6.027344v46.792969h-12.054688zm0 0"/></svg>