<svg id="Capa_1" enable-background="new 0 0 511.841 511.841" height="512" viewBox="0 0 511.841 511.841" width="512" xmlns="http://www.w3.org/2000/svg"><g><path d="m449.131 403.848c37.855-28.113 60.602-99.41 62.705-197.595.132-6.121-2.152-11.899-6.43-16.27-4.265-4.357-9.97-6.756-16.065-6.756h-5.573c-14.631 0-28.017 8.597-34.103 21.902l-44.348 96.959c-5.145-4.425-12.093-7.332-20.317-8.422v-30.5c0-14.933-11.596-30-37.5-30h-110c-14.092 0-23.94 4.464-30 10.934-6.06-6.47-15.908-10.934-30-10.934h-58.302c-4.142 0-7.5 3.358-7.5 7.5s3.358 7.5 7.5 7.5h58.302c13.668 0 22.5 5.888 22.5 15v65.056c0 4.142 3.358 7.5 7.5 7.5s7.5-3.358 7.5-7.5v-65.056c0-9.112 8.832-15 22.5-15h110c13.668 0 22.5 5.888 22.5 15v30.465c-20.649 2.626-30 16.131-30 29.535v30.784h-42.666c-8.724 0-16.496 4.885-20.284 12.748-3.781 7.848-2.761 16.951 2.663 23.757 9.125 11.45 23.213 20.613 40.248 26.729l-8.477 26.767h-95.472l-4.904-15.485c25.742-2.538 37.411-14.822 37.411-27.015 0-9.649-7.851-17.5-17.5-17.5h-16.019v-9.117c0-4.337 5.343-5.883 10.343-5.883h31.991c4.143 0 7.5-3.358 7.5-7.5s-3.357-7.5-7.5-7.5h-31.991c-7.234 0-13.405 2.023-17.849 5.503-4.875-3.726-11.48-5.503-17.838-5.503h-114.656v-30.784c0-13.404-9.351-26.909-30-29.535v-30.465c0-9.112 8.832-15 22.5-15h21.698c4.142 0 7.5-3.358 7.5-7.5s-3.358-7.5-7.5-7.5h-21.698c-25.905 0-37.5 15.067-37.5 30v30.465c-20.649 2.626-30 16.131-30 29.535v128.284c0 4.142 3.358 7.5 7.5 7.5h41.499c4.142 0 7.5-3.358 7.5-7.5s-3.358-7.5-7.5-7.5h-33.999v-120.785c0-9.112 8.832-15 22.5-15s22.5 5.888 22.5 15v60.784h-2.5c-9.649 0-17.5 7.851-17.5 17.5 0 12.194 11.669 24.477 37.411 27.015l-11.834 37.366c-1.25 3.949.937 8.164 4.886 9.414.753.239 1.516.352 2.266.352 3.183 0 6.136-2.042 7.148-5.238l3.614-11.41h121.538l3.614 11.41c1.012 3.196 3.965 5.238 7.148 5.238.75 0 1.513-.113 2.266-.352 3.949-1.25 6.136-5.465 4.886-9.414l-2.179-6.882h85.972l-2.179 6.882c-1.25 3.949.938 8.164 4.886 9.414.754.239 1.517.352 2.267.352 3.183 0 6.136-2.042 7.148-5.238l3.614-11.41h85.028c4.143 0 7.5-3.358 7.5-7.5s-3.357-7.5-7.5-7.5h-80.281l7.127-22.505c11.648 2.782 24.248 4.277 37.311 4.277 23.684 0 46.151-4.9 64.261-13.911l18.542 58.549c1.013 3.196 3.966 5.238 7.148 5.238.75 0 1.513-.113 2.267-.352 3.948-1.25 6.136-5.465 4.886-9.414zm-374.131-34.899h114.657c5 0 10.343 1.545 10.343 5.883v9.117h-125zm-20 32.5c0-1.378 1.122-2.5 2.5-2.5h173.52c1.378 0 2.5 1.122 2.5 2.5 0 4.078-7.942 12.497-32.487 12.5-.03 0-.061 0-.091 0h-113.367c-.028 0-.056 0-.084 0-15.016-.001-23.088-3.131-27.215-5.757-3.894-2.476-5.276-5.18-5.276-6.743zm33.241 42.5 4.75-15h102.536l4.75 15zm375.065-232.581c3.651-7.983 11.684-13.141 20.462-13.141h5.055l-61.208 133.821c-5.983 13.079-19.024 21.59-33.364 21.875 4.524-4.424 8.286-9.692 11.004-15.635zm-108.306 111.798c0-9.112 8.832-15 22.5-15 10.244 0 17.88 3.294 20.968 8.897l-6.854 14.985c-6.086 13.305-19.472 21.902-34.103 21.902h-2.511zm-63.557 57.94c-1.828-2.295-2.157-5.248-.881-7.898 1.285-2.667 3.816-4.259 6.772-4.259h60.178 36c20.483 0 39.224-12.036 47.743-30.663l55.227-120.745c-3.59 90.389-26.05 156.252-60.824 177.313-16.893 10.232-39.622 15.867-64.001 15.867-34.39 0-65.876-11.625-80.214-29.615z"/><path d="m37.5 188.166h340c4.143 0 7.5-3.358 7.5-7.5v-136.922c0-4.142-3.357-7.5-7.5-7.5h-105.102c-4.143 0-7.5 3.358-7.5 7.5s3.357 7.5 7.5 7.5h97.602v18.037c-30.781 16.86-54.942 34.212-64.365 41.254-11.049-6.81-39.688-23.166-59.888-23.166-18.084 0-33.646 7.917-53.35 17.938-30.418 15.474-71.724 36.484-147.397 37.794v-91.857h197.398c4.142 0 7.5-3.358 7.5-7.5s-3.358-7.5-7.5-7.5h-204.898c-4.142 0-7.5 3.358-7.5 7.5v136.922c0 4.142 3.358 7.5 7.5 7.5zm161.698-69.488c17.913-9.112 32.061-16.309 46.549-16.309 16.964 0 46.266 16.995 56.122 23.542 2.695 1.793 6.238 1.653 8.784-.345.272-.214 25.052-19.566 59.347-39.104v86.703h-325v-15.062c79.263-1.31 122.425-23.263 154.198-39.425z"/></g></svg>