<svg id="Layer_1" enable-background="new 0 0 98 98" height="512" viewBox="0 0 98 98" width="512" xmlns="http://www.w3.org/2000/svg"><g><path d="m31.917 84.599h3.13v2h-3.13z"/><path d="m9.789 33.48h1.842v2h-1.842z"/><path d="m73.2153 57.9147h-2c0 .8804-.2163 1.7534-.6255 2.5249l1.7666.9375c.5621-1.0596.8589-2.2569.8589-3.4624z"/><path d="m74.9141 50.0533c-.3008-.6841-.4531-1.4136-.4531-2.1685h-2c0 1.0337.2095 2.0337.6221 2.9731z"/><path d="m96.4997 67.5201c-.0015-3.2607-2.1302-6.0814-5.1325-7.0381 1.4888-3.9188-.653-8.4032-4.7222-9.6621.391-.9006.6104-1.8923.6104-2.9351h-.0864c.0134-.9189-.1411-1.8505-.4796-2.749-.7642-2.0293-2.3438-3.5859-4.3301-4.3188.926-4.3745-2.3868-8.8794-7.2446-8.8794-4.084 0-7.4063 3.3174-7.4063 7.395 0 .5049.0508 1.0015.1519 1.4844-3.9994 1.4773-5.9162 6.0984-4.1621 9.9595-1.938.561-3.564 1.894-4.5034 3.7485-.9658 1.9053-1.0732 4.0513-.3403 5.959-5.4044 1.7248-6.8715 8.6598-2.8154 12.418 2.6203 2.4279 6.7777 2.8045 9.7393.3569 1.2849 1.0573 2.8734 1.631 4.5679 1.6522-.4225 6.417-1.8909 12.8963-4.3796 19.2902h-15.7362v-4.5737h4.4351v-8.0562h-7.5947v-1.9185h4.8608v-5.8433h-4.8608v-1.0454h4.8608v-5.8432h-32.5997v5.8433h4.8608v1.0454h-4.8608v5.8433h4.8608v1.9185h-7.5947v8.0562h4.4351v4.5737h-6.3979v-39.297h1.4487l4.4897-17.5825-3.5259-6.6577h-11.4497l-3.5259 6.6577 4.48 17.5825h1.4585v39.2969h-6.5107v2h6.5107 6.6245 6.3979 6.4448 16.3076 6.4448 14.9507l-.0013.0034h20.0029l-.0013-.0034h8.682v-2h-9.4692c-2.4918-6.3947-3.9609-12.8781-4.3811-19.3022 1.6181-.0531 3.1792-.6263 4.4255-1.6421 4.7769 3.9533 11.9958.4497 12.0577-5.6616.0002-.0244.0038-.0472.0038-.0718l-.0001-.0009c0-.0012.0001-.0018.0001-.0018zm-80.6559-34.8559 2.0043 3.7847h-13.0501l.5133-.9692h3.7263v-2h-2.6672l.4318-.8154h9.0416zm-11.4202 5.7846h5.7805v5.7646h2v-5.7646h6.0178l-3.6916 14.4556h-2.3262v-5.8428h-2v5.8428h-2.0972zm5.5871 55.7525v-39.2925h2.6245v39.2925zm11.3213-25.2803h28.5996v1.8433h-28.5996zm4.8609 3.8433h18.8779v1.0454h-18.8779zm-4.8609 3.0454h28.5996v1.8433h-28.5996zm4.8609 3.8432h18.8779v1.9185h-18.8779zm-7.5948 7.9747v-1.0283h11.2563v-2h-11.2563v-1.0278h34.0674v4.0562h-2.4351-6.4448-16.3076-6.4448-2.4351zm4.4351 6.5737v-4.5737h2.4448v4.5737zm4.4448 0v-4.5737h16.3076v4.5737zm18.3076 0v-4.5737h2.4448v4.5737zm19.9917-23.7837-.7324.7886c-2.1695 2.3346-5.5654 2.1569-7.6465.2285-3.0641-2.8389-1.7596-8.1416 2.4765-9.1353 1.3486 1.8229 3.5071 3.0122 5.9434 3.0122 1.7852 0 3.5093-.645 4.8545-1.8154l-1.3135-1.5088c-.981.854-2.2383 1.3242-3.541 1.3242-4.0273 0-6.6523-4.3046-4.8398-7.8828.856-1.689 2.4917-2.7842 4.376-2.9302l1.7969-.1392-1.0688-1.4512c-2.3013-3.123-.5697-7.6305 3.2217-8.4316l1.1396-.2412-.4111-1.0898c-.2148-.5713-.3242-1.1812-.3242-1.813 0-2.9746 2.4253-5.395 5.4063-5.395 3.859 0 6.3252 3.8797 5.0713 7.208l-.4111 1.0898 1.1396.2412c1.8203.3848 3.2427 1.6108 3.9033 3.3643 1.3069 3.4684-1.2451 5.6498-1.48 6.135-.9424.803-2.1478 1.3064-3.48 1.3064-1.4531 0-2.8164-.5693-3.8379-1.6035l-1.4229 1.4063c1.4009 1.417 3.269 2.1973 5.2607 2.1973 2.29 0 4.3397-1.0463 5.6977-2.6853 3.6068.7508 5.4298 4.9074 3.5054 8.0667l-.8062 1.3228 1.5376.1899c2.683.3306 4.7065 2.6284 4.7073 5.3454-.0014 4.6782-5.6141 7.1591-9.0697 3.9299-.0721-.0688-.145-.132-.2162-.2072-.9293-.9699-1.5084-2.2783-1.5084-3.7244h-2c0 1.5886.5082 3.058 1.3639 4.2648-.9354.7324-2.0753 1.1342-3.2916 1.1346-1.5083 0-2.9043-.6084-3.9307-1.7134l-.7324-.7886-.7324.7886c-2.0725 2.2296-5.7005 2.3384-7.8726 0zm10.5313 23.7837v-4.6099h-2v4.6099h-6.1892c2.4451-6.4843 3.8661-13.0565 4.2516-19.5673.9978-.2715 1.9401-.7242 2.7438-1.3795.84.6859 1.8298 1.1525 2.8768 1.4166.387 6.5024 1.8074 13.0611 4.2499 19.5302z"/><path d="m74.309 84.467h2v2.977h-2z"/><path d="m35.1172 33.92c0 3.2852 2.6729 5.958 5.958 5.958s5.9575-2.6729 5.9575-5.958-2.6724-5.9575-5.9575-5.9575-5.958 2.6724-5.958 5.9575zm5.958-3.9575c2.1821 0 3.9575 1.7754 3.9575 3.9575 0 2.1826-1.7754 3.958-3.9575 3.958-2.1826 0-3.958-1.7754-3.958-3.958 0-2.1821 1.7754-3.9575 3.958-3.9575z"/><path d="m40.075 20.769h2v4.517h-2z"/><path d="m31.114 25.218h4.517v2h-4.517z" transform="matrix(-.707 -.707 .707 -.707 38.435 68.354)"/><path d="m27.924 32.92h4.517v2h-4.517z"/><path d="m32.373 39.364h2v4.517h-2z" transform="matrix(-.707 -.707 .707 -.707 27.539 94.652)"/><path d="m40.075 42.554h2v4.517h-2z"/><path d="m46.519 40.623h4.517v2h-4.517z" transform="matrix(-.707 -.707 .707 -.707 53.837 105.545)"/><path d="m49.71 32.92h4.517v2h-4.517z"/><path d="m47.778 23.959h2v4.517h-2z" transform="matrix(-.707 -.707 .707 -.707 64.73 79.247)"/><path d="m68.793 17.791h5.737v2h-5.737z"/><path d="m57.0049 19.7911h9.5698v-2h-5.4085c-.2831-1.1887-.0885-2.4307.5726-3.4917.7725-1.2402 2.0474-2.0205 3.4976-2.1406l.9219-.0767-.0044-.9248c-.0112-2.374 1.1401-4.6138 3.0796-5.9912 2.4194-1.7158 5.4976-1.8218 8.0337-.2759 2.5435 1.5503 3.8662 4.3257 3.4517 7.2437l-.4131 2.9629 2.1182-2.1182c2.0762-1.4683 4.272-.8335 5.5215.1563 1.1273.8928 2.1328 2.6068 1.6028 4.6562h-12.8545v2h16.2632v-2h-1.3663c.4158-2.3343-.4432-4.6718-2.4037-6.2241-1.8887-1.4956-4.2563-1.8501-6.4067-1.0249-.1689-3.0054-1.7852-5.7217-4.4722-7.3599-3.231-1.9683-7.1504-1.8335-10.2324.353-2.2314 1.585-3.644 4.0674-3.8853 6.7622-1.7168.3765-3.1982 1.418-4.1494 2.9443-.863 1.3855-1.1705 2.9866-.9126 4.5493h-2.1235z"/><path d="m11.7114 19.3536-1.9438-1.9477-2.6548 2.6557 1.415 1.4141 1.2388-1.2397 1.9438 1.9477 1.9473-1.9477 1.2359 1.2392 1.416-1.4131-2.6509-2.6562z"/><path d="m25.0337 12.2897-2.3335-2.3389-3.0464 3.0469 1.4141 1.414 1.6303-1.6308 2.3335 2.3388 2.3384-2.3388 1.6265 1.6299 1.416-1.4121-3.0405-3.0479z"/><path d="m13.4473 5.6476-2.8106-2.8164-3.5234 3.5244 1.414 1.414 2.1084-2.1084 2.8106 2.8165 2.8159-2.8165 2.103 2.108 1.4161-1.4131-3.5181-3.5249z"/></g></svg>