<svg clip-rule="evenodd" fill-rule="evenodd" height="1.707in" image-rendering="optimizeQuality" shape-rendering="geometricPrecision" text-rendering="geometricPrecision" viewBox="0 0 1706.66 1706.66" width="1.707in" xmlns="http://www.w3.org/2000/svg" xmlns:xodm="http://www.corel.com/coreldraw/odm/2003"><g id="Layer_x0020_1"><path d="m1022.04 1272.78c-34.23 0-94.42-106.33-264.85-4.39-6.65 3.96-15.01 3.78-21.43-.53-67.63-45.31-190.05-68.94-235.76-4.53-6.43 9.07-19.03 11.15-28.03 4.64-45.72-33-145.03-79.57-193.65-19.39-1.46 1.79-3.21 3.31-5.2 4.53-78.66 47.81-171.41-21.39-138.04-49.2 8.44-7.06 21.04-5.94 28.1 2.47 3.87 4.5 37.83 41.5 86.44 14.15 62.3-72.83 167.34-35.51 230.31 4.56 65.03-66.65 189.68-43.98 267.34 2.74 102.06-58.22 183.15-58.11 274.29.6 82.26-56.28 179.88-56.59 260.43-.8 178.57-95.34 183.14-5.12 282.51 3.7 53.41 4.74 63.72-50.19 89.57-27.63 29.52 25.74-42.02 71.98-93.08 67.46-119.87-10.6-97.38-98.65-270.9-2.43-6.96 3.86-15.55 3.2-21.89-1.65-71.26-54.86-160.96-54.25-234.07 1.57-3.54 2.77-7.81 4.14-12.09 4.14z"/><path d="m1022.04 1439.27c-34.15 0-94.76-106.37-264.85-4.39-6.65 3.98-15.01 3.79-21.43-.53-67.67-45.31-190.06-68.94-235.76-4.54-6.41 9.03-18.98 11.16-28.01 4.65-45.72-33-145.04-79.55-193.65-19.39-1.46 1.79-3.21 3.33-5.2 4.53-79.07 47.73-171.29-21.43-138.04-49.2 8.44-7.07 21.01-5.94 28.1 2.46 3.82 4.44 37.8 41.54 86.45 14.17 62.31-72.83 167.34-35.5 230.3 4.54 65.04-66.68 189.67-44 267.34 2.75 102.02-58.22 183.11-58.12 274.29.6 82.26-56.31 179.86-56.62 260.41-.8 178.49-95.31 182.92-5.28 282.52 3.7 53.43 4.83 63.7-50.24 89.57-27.65 29.5 25.76-42 72.01-93.08 67.48-119.77-10.62-97.6-98.67-270.9-2.44-6.96 3.87-15.55 3.22-21.89-1.65-71.26-54.84-160.95-54.25-234.07 1.58-3.57 2.76-7.85 4.14-12.12 4.14z"/><path d="m1022.04 1605.76c-33.81 0-94.8-106.32-264.85-4.39-6.65 3.97-15.01 3.78-21.43-.53-67.63-45.31-190.05-68.94-235.76-4.53-6.41 9.04-18.98 11.17-28.01 4.66-45.72-33.04-145.06-79.55-193.65-19.39-1.44 1.79-3.21 3.33-5.2 4.53-79.1 47.76-171.29-21.46-138.04-49.2 8.44-7.06 21.01-5.96 28.1 2.46 3.82 4.46 37.8 41.55 86.45 14.17 62.3-72.81 167.32-35.5 230.3 4.54 65.02-66.68 189.69-43.98 267.34 2.74 102.06-58.2 183.15-58.11 274.29.6 82.23-56.29 179.88-56.62 260.41-.79 178.54-95.34 183.03-5.22 282.52 3.7 53.42 4.79 63.69-50.22 89.57-27.65 29.5 25.73-41.98 72.02-93.08 67.48-119.93-10.65-97.39-98.66-270.9-2.45-6.96 3.87-15.55 3.21-21.89-1.65-71.26-54.84-160.95-54.27-234.07 1.57-3.57 2.76-7.85 4.15-12.12 4.15z"/><path d="m1129.23 1021.34c-5.97 0-11.86-2.65-15.82-7.75l-95-122.35h-656.18c-5.74 0-11.18-2.47-14.98-6.75l-196.32-221.89c-11.3-12.76-2.37-33 14.7-33.25l117.73-1.69c6.35.08 12.2 2.76 16.06 7.69l109.17 140.01h560.7c6.17 0 12 2.86 15.8 7.74l159.92 205.98c10.3 13.27.36 32.26-15.79 32.26zm-757.98-170.1h616.12l-27.86-35.89h-560.69c-6.17 0-11.98-2.85-15.78-7.7l-109.06-139.86-64.23.92 161.51 182.53z"/><path d="m249.85 1021.33c-16.94 0-26.37-20.09-15.13-33.09l112.4-130.07c17.23-19.93 47.47 6.25 30.27 26.15l-112.4 130.08c-3.96 4.59-9.53 6.93-15.14 6.93z"/><path d="m1143.99 1021.34h-992.85c-26.32 0-26.32-40 0-40h992.85c26.32 0 26.33 40 0 40z"/><path d="m36.73 571.2c-18.91 0-20.57-19.51-24.92-35.76-58.87-219.75 107.99-434.54 332.95-434.54 156.27 0 293.61 105.2 333.96 255.85 3.89 14.49 14.5 39.27-8.54 45.44l-633.45 169.02zm308.04-430.33c-197.38 0-346.47 187.01-293.88 385.82l589.64-157.99c-35.53-134.32-156.85-227.83-295.76-227.83z"/><path d="m205.18 526.07c-6.53 0-12.92-3.18-16.75-9.04-101.26-154.64 54.4-393.71 55.98-396.1 5.57-8.43 16.54-11.37 25.61-6.88 2.57 1.28 256.76 133.34 246.55 315.05-1.48 26.51-41.4 23.94-39.93-2.24 7.35-130.89-155.64-237.17-208.35-267.98-30.22 53.04-118.21 226.59-46.43 336.24 8.82 13.46-1.19 30.94-16.69 30.94z"/><path d="m438.86 815.37c-8.83 0-16.92-5.89-19.31-14.83l-87.98-328.35c-6.82-25.43 31.83-35.8 38.65-10.35l87.98 328.35c3.42 12.74-6.22 25.18-19.34 25.18z"/><path d="m1018.68 433.68c-52.94 0-95.99-43.07-95.99-96s43.07-95.99 95.99-95.99c52.93 0 96.01 43.07 96.01 95.99 0 52.94-43.07 96-96.01 96zm0-151.99c-73.69 0-73.67 112 0 112 73.7 0 73.7-112 0-112z"/><path d="m1018.68 232.04c-27.24 0-20-38.12-20-71.81 0-26.33 40-26.33 40 0 0 33.73 7.24 71.81-20 71.81z"/><path d="m1107.54 268.85c-17.63 0-26.8-21.49-14.13-34.16 23.84-23.83 45.67-55.9 64.93-36.64 19.28 19.28-12.85 41.06-36.67 64.93-3.89 3.91-9.01 5.87-14.13 5.87z"/><path d="m1196.16 357.69c-33.69 0-71.8 7.24-71.8-20s38.13-20 71.8-20c26.32 0 26.33 40 0 40z"/><path d="m1144.17 483.18c-13.86 0-35.02-26.69-50.8-42.48-18.62-18.64 9.68-46.91 28.3-28.29 23.82 23.82 55.93 45.67 36.65 64.93-3.89 3.89-9.02 5.85-14.14 5.85z"/><path d="m1018.68 535.17c-27.24 0-20-38.13-20-71.82 0-26.32 40-26.32 40 0 0 33.73 7.24 71.82-20 71.82z"/><path d="m893.2 483.18c-17.68 0-26.78-21.51-14.15-34.14 23.82-23.82 45.67-55.92 64.93-36.64 19.24 19.26-12.74 41.08-36.64 64.93-3.91 3.89-9.03 5.85-14.14 5.85z"/><path d="m893.04 357.69c-33.69 0-71.81 7.24-71.81-20s38.12-20 71.81-20c26.33 0 26.33 40 0 40z"/><path d="m929.84 268.85c-13.87 0-34.94-26.67-50.79-42.5-18.64-18.62 9.68-46.91 28.29-28.28 23.85 23.87 55.92 45.65 36.64 64.91-3.91 3.91-9.04 5.87-14.14 5.87z"/><path d="m1644.46 1021.34h-500.47c-26.33 0-26.32-40 0-40h500.47c26.32 0 26.32 40 0 40z"/><path d="m1299.79 1187.24c-11.04 0-20-8.97-20-20v-438.13c0-51.74 42.08-93.8 93.81-93.8 86.58 0 119.02 113.8 73.82 113.8-11.03 0-20-8.96-20-20 0-70.84-107.6-70.83-107.6 0v438.12c-.03 11.04-9 20.01-20.03 20.01z"/><path d="m1539.02 1187.24c-11.04 0-20-8.97-20-20v-438.13c0-51.74 42.08-93.8 93.81-93.8 86.57 0 119.02 113.8 73.81 113.8-11.03 0-20-8.96-20-20 0-70.83-107.6-70.85-107.6 0v438.12c-.02 11.04-8.99 20.01-20.03 20.01z"/><path d="m1539.02 838.07h-239.24c-26.33 0-26.32-40 0-40h239.24c26.33 0 26.33 40 0 40z"/><path d="m1539.02 929.7h-239.24c-26.33 0-26.32-40 0-40h239.24c26.33 0 26.33 40 0 40z"/><path d="m1539.02 1021.34h-239.24c-26.33 0-26.32-40 0-40h239.24c26.33 0 26.33 40 0 40z"/><path d="m1539.02 1112.94h-239.24c-26.33 0-26.32-40 0-40h239.24c26.33 0 26.33 40 0 40z"/></g></svg>