<svg id="Layer_1" enable-background="new 0 0 512 512" height="512" viewBox="0 0 512 512" width="512" xmlns="http://www.w3.org/2000/svg"><g id="_x31_2_Pool_Table"><g><path d="m403.135 0h-294.291c-14.703 0-26.667 11.963-26.667 26.667v458.666c0 14.703 11.963 26.667 26.667 26.667h294.291c14.703 0 26.667-11.963 26.667-26.667v-458.666c0-14.703-11.964-26.667-26.667-26.667zm-18.797 441.052c-14.057 0-25.489 11.432-25.489 25.489 0 .956.179 1.863.282 2.791h-206.289c.103-.929.282-1.835.282-2.791 0-14.057-11.432-25.489-25.489-25.489-.956 0-1.863.179-2.791.281v-160.125c.929.102 1.835.281 2.791.281 14.057 0 25.489-11.432 25.489-25.489s-11.432-25.489-25.489-25.489c-.956 0-1.863.179-2.791.281v-160.126c.929.102 1.835.281 2.791.281 14.057 0 25.489-11.432 25.489-25.489 0-.956-.179-1.863-.282-2.791h206.288c-.103.929-.282 1.835-.282 2.791 0 14.057 11.432 25.489 25.489 25.489.959 0 1.87-.179 2.803-.282v160.127c-.932-.103-1.842-.282-2.803-.282-14.057 0-25.489 11.432-25.489 25.489s11.432 25.489 25.489 25.489c.959 0 1.87-.179 2.803-.282v160.127c-.932-.102-1.842-.281-2.802-.281zm-271.573-185.052c0-8.172 6.672-14.823 14.87-14.823 8.172 0 14.823 6.651 14.823 14.823s-6.651 14.823-14.823 14.823c-8.198 0-14.87-6.651-14.87-14.823zm-5.815 14.828h-14.106v-29.657h14.106c-3.022 4.188-4.851 9.284-4.851 14.828-.001 5.545 1.829 10.642 4.851 14.829zm277.388-.005c-8.172 0-14.823-6.651-14.823-14.823s6.651-14.823 14.823-14.823c8.198 0 14.87 6.651 14.87 14.823s-6.672 14.823-14.87 14.823zm20.69-29.646h14.107v29.651h-14.111c3.022-4.188 4.851-9.284 4.851-14.828-.001-5.541-1.828-10.637-4.847-14.823zm-7.221-10.666v-161.391h21.328v161.391zm-13.469-170.229c-8.172 0-14.823-6.651-14.823-14.823 0-2.208.518-4.285 1.387-6.169.009-.02.022-.036.03-.057 2.361-5.06 7.463-8.598 13.405-8.598 8.198 0 14.87 6.651 14.87 14.823s-6.671 14.824-14.869 14.824zm-23.656-28.281h-209.385v-21.334h209.385zm-218.223 13.457c0 8.172-6.651 14.823-14.823 14.823-8.198 0-14.87-6.651-14.87-14.823s6.672-14.823 14.87-14.823c8.171.001 14.823 6.652 14.823 14.823zm-28.282 23.662v161.385h-21.333v-161.385zm-21.333 212.374h21.333v161.386h-21.333zm34.791 170.224c8.172 0 14.823 6.651 14.823 14.823s-6.651 14.823-14.823 14.823c-8.198 0-14.87-6.651-14.87-14.823s6.672-14.823 14.87-14.823zm23.662 28.282h209.385v21.333h-209.385zm219.636-7.234c-.009-.021-.022-.037-.031-.058-.869-1.884-1.386-3.961-1.386-6.168 0-8.172 6.651-14.823 14.823-14.823 8.198 0 14.87 6.651 14.87 14.823s-6.672 14.823-14.87 14.823c-5.943.001-11.044-3.536-13.406-8.597zm26.874-29.886v-161.386h21.328v161.386zm21.328-416.213v31.786h-12.947c2.289-3.818 3.687-8.23 3.687-12.995 0-14.057-11.453-25.489-25.537-25.489-4.763 0-9.172 1.395-12.99 3.678v-12.98h31.786c8.823 0 16.001 7.177 16.001 16zm-310.291-16h31.786v12.983c-3.818-2.285-8.23-3.681-12.995-3.681-14.084 0-25.537 11.432-25.537 25.489 0 4.765 1.398 9.176 3.687 12.995h-12.941v-31.786c0-8.823 7.176-16 16-16zm-16 474.666v-31.786h12.942c-2.289 3.818-3.687 8.23-3.687 12.995 0 14.057 11.453 25.489 25.537 25.489 4.765 0 9.176-1.396 12.995-3.681v12.983h-31.786c-8.825 0-16.001-7.177-16.001-16zm310.291 16h-31.786v-12.98c3.817 2.283 8.227 3.678 12.99 3.678 14.084 0 25.537-11.432 25.537-25.489 0-4.765-1.399-9.176-3.687-12.995h12.947v31.786c-.001 8.823-7.179 16-16.001 16z"/><path d="m307.067 98.281c-6.833 0-12.886 3.136-16.997 7.968-4.092-4.863-10.201-7.968-17.04-7.968-6.864 0-12.936 3.154-17.025 8.033-4.101-4.869-10.163-8.033-17.012-8.033-6.863 0-12.936 3.164-17.046 8.031-4.098-4.863-10.143-8.031-16.984-8.031-12.343 0-22.39 10.02-22.39 22.339 0 10.962 7.936 20.072 18.356 21.982-.852 2.339-1.341 4.851-1.341 7.486 0 10.977 7.957 20.087 18.397 21.981-.857 2.342-1.376 4.845-1.376 7.487 0 10.983 7.964 20.102 18.411 21.989-.851 2.356-1.395 4.86-1.395 7.506 0 12.343 10.047 22.385 22.39 22.385 12.318 0 22.339-10.042 22.339-22.385 0-2.647-.53-5.154-1.389-7.503 10.44-1.875 18.405-10.998 18.405-21.992 0-2.637-.498-5.145-1.344-7.487 10.419-1.892 18.359-11.004 18.359-21.982 0-2.636-.51-5.138-1.357-7.48 10.428-1.886 18.378-11.005 18.378-21.99 0-12.314-10.021-22.336-22.339-22.336zm-45.747 22.21c.071-6.377 5.292-11.543 11.711-11.543 6.393 0 11.588 5.166 11.659 11.543 0 .044-.013.085-.013.128 0 .045.013.085.013.128-.071 6.402-5.265 11.595-11.659 11.595-6.42 0-11.64-5.192-11.711-11.595 0-.044.013-.085.013-.128s-.013-.083-.013-.128zm-5.305 17.926c6.438 0 11.672 5.235 11.672 11.672 0 6.463-5.235 11.719-11.672 11.719-6.463 0-11.724-5.255-11.724-11.719 0-6.438 5.261-11.672 11.724-11.672zm-17.021-29.469c6.438 0 11.672 5.235 11.672 11.672 0 6.463-5.235 11.724-11.672 11.724-6.463 0-11.719-5.26-11.719-11.724.001-6.437 5.256-11.672 11.719-11.672zm-45.754 11.672c0-6.438 5.26-11.672 11.724-11.672 6.393 0 11.588 5.166 11.658 11.543 0 .044-.013.085-.013.128 0 .045.013.085.013.128-.071 6.402-5.265 11.595-11.658 11.595-6.464.002-11.724-5.258-11.724-11.722zm17.015 29.469c0-6.438 5.26-11.672 11.724-11.672 6.438 0 11.672 5.235 11.672 11.672 0 6.463-5.235 11.719-11.672 11.719-6.463-.001-11.724-5.256-11.724-11.719zm28.739 41.192c-6.463 0-11.719-5.26-11.719-11.724 0-6.438 5.255-11.672 11.719-11.672 6.438 0 11.672 5.235 11.672 11.672 0 6.464-5.234 11.724-11.672 11.724zm17.021 29.49c-6.463 0-11.724-5.255-11.724-11.719 0-6.438 5.26-11.672 11.724-11.672 6.438 0 11.672 5.235 11.672 11.672 0 6.464-5.234 11.719-11.672 11.719zm17.016-29.49c-6.463 0-11.724-5.26-11.724-11.724 0-6.438 5.26-11.672 11.724-11.672 6.438 0 11.672 5.235 11.672 11.672 0 6.464-5.234 11.724-11.672 11.724zm17.016-29.474c-6.463 0-11.719-5.255-11.719-11.719 0-6.438 5.255-11.672 11.719-11.672 6.438 0 11.672 5.235 11.672 11.672-.001 6.464-5.235 11.719-11.672 11.719zm17.02-29.463c-6.463 0-11.724-5.26-11.724-11.724 0-6.438 5.26-11.672 11.724-11.672 6.438 0 11.672 5.235 11.672 11.672 0 6.464-5.234 11.724-11.672 11.724z"/><path d="m256.015 345.619c-12.343 0-22.39 10.02-22.39 22.339 0 12.343 10.047 22.385 22.39 22.385 12.318 0 22.339-10.042 22.339-22.385 0-12.317-10.021-22.339-22.339-22.339zm0 34.058c-6.463 0-11.724-5.255-11.724-11.719 0-6.438 5.26-11.672 11.724-11.672 6.438 0 11.672 5.235 11.672 11.672 0 6.463-5.234 11.719-11.672 11.719z"/><path d="m37.948 109.13c-.224-6.849-5.771-12.214-12.625-12.214-6.849 0-12.396 5.364-12.62 12.214l-12.677 381.412c-.389 11.769 9.023 21.453 20.755 21.453h9.089c11.749 0 21.149-9.712 20.75-21.453-3.437-103.452-10.293-309.825-12.672-381.412zm-14.589.354c.036-1.067.901-1.901 1.964-1.901 1.067 0 1.932.834 1.969 1.901l8.977 270.213h-21.891zm6.511 391.844h-9.089c-5.691 0-10.282-4.697-10.099-10.432l3.349-100.531h22.589l3.344 100.531c.184 5.747-4.413 10.432-10.094 10.432z"/><path d="m499.301 109.13c-.224-6.849-5.771-12.214-12.625-12.214-6.844 0-12.391 5.364-12.625 12.214-2.356 70.924-9.22 277.504-12.672 381.41-.399 11.742 9.002 21.453 20.75 21.453h9.094c11.749 0 21.149-9.712 20.75-21.453-3.425-103.096-10.297-309.938-12.672-381.41zm-14.593.359c.036-1.067.901-1.906 1.969-1.906 1.067 0 1.932.834 1.969 1.901l8.977 270.213h-21.893zm6.516 391.839h-9.094c-5.682 0-10.278-4.685-10.093-10.432l3.34-100.531h22.601l3.34 100.531c.183 5.747-4.413 10.432-10.094 10.432z"/></g></g></svg>