<svg clip-rule="evenodd" fill-rule="evenodd" height="512" image-rendering="optimizeQuality" shape-rendering="geometricPrecision" text-rendering="geometricPrecision" viewBox="0 0 512 512" width="512" xmlns="http://www.w3.org/2000/svg"><g id="Layer_x0020_1"><g id="_437930720"><g id="_437930216"><path d="m411 448h-270c-22 0-40-18-40-40s18-39 40-39h235l62-107c7-13 20-20 35-20 6 0 13 2 19 5 9 5 16 14 19 24 2 10 1 21-4 30-3 4-7 13-13 23-10 21-25 49-39 74-23 41-29 46-34 48-3 1-6 2-10 2zm-270-65c-14 0-26 11-26 25s12 26 26 26h270c2 0 3-1 5-1 2-1 8-8 28-45 13-23 28-50 38-70 6-11 10-20 12-24 4-6 5-13 3-19-2-7-6-12-12-16-4-2-8-3-12-3-10 0-18 5-23 13l-64 110c-1 2-3 4-6 4z"/></g><g id="_437930120"><path d="m380 383h-132c-4 0-7-3-7-7v-36c0-29 23-52 52-52h134c2 0 5 1 6 4 1 2 1 4 0 7l-47 80c-1 2-3 4-6 4zm-125-14h121l39-67h-122c-21 0-38 17-38 38z"/></g><g id="_437930768"><path d="m380 383h-103c-4 0-7-3-7-7v-36c0-13 10-23 23-23h117c3 0 5 1 6 3 2 3 2 5 0 7l-30 52c-1 2-3 4-6 4zm-96-14h92l22-38h-105c-5 0-9 4-9 9z"/></g><g><g id="_437930360"><path d="m217 504h-45c-4 0-7-3-7-7v-56c0-4 3-7 7-7s7 3 7 7v49h31v-49c0-4 3-7 7-7s7 3 7 7v56c0 4-3 7-7 7z"/></g><g id="_437930432"><path d="m387 504h-45c-3 0-7-3-7-7v-56c0-4 4-7 7-7 4 0 7 3 7 7v49h31v-49c0-4 4-7 7-7 4 0 7 3 7 7v56c0 4-3 7-7 7z"/></g></g><g id="_437930504"><path d="m439 504h-318c-4 0-7-3-7-7 0-3 3-7 7-7h318c4 0 7 4 7 7 0 4-3 7-7 7z"/></g><g id="_437930552"><path d="m134 221c-43 0-79-35-79-79s36-79 79-79c44 0 79 35 79 79s-35 79-79 79zm0-144c-35 0-65 29-65 65s30 65 65 65c36 0 65-29 65-65s-29-65-65-65z"/></g><g id="_437930816"><path d="m134 51c-3 0-7-3-7-7v-29c0-4 4-7 7-7 4 0 7 3 7 7v29c0 4-3 7-7 7z"/></g><g id="_437930888"><path d="m204 80c-2 0-4-1-5-2-3-3-3-7 0-10l21-21c2-3 7-3 9 0 3 3 3 7 0 10l-20 21c-2 1-4 2-5 2z"/></g><g id="_437930960"><path d="m262 149h-30c-4 0-7-3-7-7s3-7 7-7h30c4 0 7 3 7 7s-3 7-7 7z"/></g><g id="_437931032"><path d="m225 239c-2 0-4-1-5-2l-21-21c-3-3-3-7 0-10 2-3 7-3 10 0l20 21c3 3 3 7 0 10-1 1-3 2-4 2z"/></g><g id="_437931104"><path d="m134 276c-3 0-7-3-7-7v-29c0-4 4-7 7-7 4 0 7 3 7 7v29c0 4-3 7-7 7z"/></g><g id="_437931176"><path d="m44 239c-1 0-3-1-5-2-2-3-2-7 0-10l21-21c3-3 7-3 10 0s3 7 0 10l-21 21c-1 1-3 2-5 2z"/></g><g id="_437931248"><path d="m37 149h-30c-4 0-7-3-7-7s3-7 7-7h30c3 0 7 3 7 7s-4 7-7 7z"/></g><g id="_437931320"><path d="m65 80c-2 0-3-1-5-2l-21-21c-2-3-2-7 0-10 3-3 8-3 10 0l21 21c3 3 3 7 0 10-1 1-3 2-5 2z"/></g></g></g></svg>