<?xml version="1.0"?>
<svg xmlns="http://www.w3.org/2000/svg" id="Layer_1" data-name="Layer 1" viewBox="0 0 128 128"><title/><path d="M83,66A15,15,0,1,0,68,51,15.01672,15.01672,0,0,0,83,66Zm0-26A11,11,0,1,1,72,51,11.01245,11.01245,0,0,1,83,40Z"/><path d="M83.58594,55.41406a1.99979,1.99979,0,0,0,2.82813-2.82812l-1.84033-1.84082,1.09033-1.63574a2,2,0,1,0-3.32812-2.21875l-2,3a1.99956,1.99956,0,0,0,.25,2.52344Z"/><path d="M6,123.5h4a6.00656,6.00656,0,0,0,6-6V110H38v11a7,7,0,0,0,14,0V110h4v11a7,7,0,0,0,14,0V110H92v7.5a6.00656,6.00656,0,0,0,6,6h4a6.00656,6.00656,0,0,0,6-6v-26a6.00656,6.00656,0,0,0-6-6V77a6.00656,6.00656,0,0,0-6-6H73.75427a11.97537,11.97537,0,0,1,1.86432,4H80V96H72V77.98438a7.99028,7.99028,0,0,0-4.19434-7.03613L62,67.80823V54a8,8,0,0,0-16,0V67.80811l-5.80518,3.13916A7.99244,7.99244,0,0,0,36,77.98438V96H28V75h4.38135a11.97557,11.97557,0,0,1,1.8642-4H12a6.00656,6.00656,0,0,0-6,6v8.5a6.00656,6.00656,0,0,0-6,6v26A6.00656,6.00656,0,0,0,6,123.5Zm96-34a2.00229,2.00229,0,0,1,2,2v26a2.00229,2.00229,0,0,1-2,2H98a2.00229,2.00229,0,0,1-2-2v-26a2.00229,2.00229,0,0,1,2-2ZM84,75H96a2.00229,2.00229,0,0,1,2,2v8.5a6.00656,6.00656,0,0,0-6,6V96H84ZM70,100H92v6H70ZM48,121a3,3,0,0,1-6,0V99a3,3,0,0,1,6,0Zm8-15H52v-6h4Zm10,15a3,3,0,0,1-6,0V99a3,3,0,0,1,6,0ZM50,54a4,4,0,0,1,8,0v6a4,4,0,0,1-8,0Zm0,12.91754a7.93181,7.93181,0,0,0,8,0v1.447l-4,5.65985-4-5.65985ZM40,77.98438a3.99654,3.99654,0,0,1,2.09766-3.51855l5.293-2.8623L52,78.12476V87a2,2,0,0,0,4,0V78.12476l4.60938-6.52124,5.29346,2.86328A3.99438,3.99438,0,0,1,68,77.98438V94.11053a6.98143,6.98143,0,0,0-4-2.0307V88.4082a2,2,0,0,0-4,0v4.27692A7.03373,7.03373,0,0,0,56.68512,96H51.31488A7.03373,7.03373,0,0,0,48,92.68512V88.4082a2,2,0,0,0-4,0v3.67163a6.98143,6.98143,0,0,0-4,2.0307ZM38,100v6H16v-6ZM10,77a2.00229,2.00229,0,0,1,2-2H24V96H16V91.5a6.00656,6.00656,0,0,0-6-6ZM4,91.5a2.00229,2.00229,0,0,1,2-2h4a2.00229,2.00229,0,0,1,2,2v26a2.00229,2.00229,0,0,1-2,2H6a2.00229,2.00229,0,0,1-2-2Z"/><path d="M44,0a2.0001,2.0001,0,0,0-2,2V7H38a4.00427,4.00427,0,0,0-4,4V27a4.00427,4.00427,0,0,0,4,4H90a4.00427,4.00427,0,0,0,4-4V11a4.00427,4.00427,0,0,0-4-4H86V2a2,2,0,0,0-4,0V7H46V2A2.0001,2.0001,0,0,0,44,0ZM90,11l.00244,16H38V11Z"/><path d="M2,43h8v1a2,2,0,0,0,4,0V43h8a2.0001,2.0001,0,0,0,2-2A12.00923,12.00923,0,0,0,14,29.18066V2a2,2,0,0,0-4,0V29.18066A12.00923,12.00923,0,0,0,0,41,2.0001,2.0001,0,0,0,2,43ZM12,33a8.01531,8.01531,0,0,1,7.74707,6H4.25293A8.01531,8.01531,0,0,1,12,33Z"/><path d="M118,29.18066V2a2,2,0,0,0-4,0V29.18066A12.00923,12.00923,0,0,0,104,41a2.0001,2.0001,0,0,0,2,2h8v1a2,2,0,0,0,4,0V43h8a2.0001,2.0001,0,0,0,2-2A12.00923,12.00923,0,0,0,118,29.18066ZM108.25293,39a8.00142,8.00142,0,0,1,15.49414,0Z"/></svg>
